<svg width="17" height="18" viewBox="0 0 17 18" fill="none" xmlns="http://www.w3.org/2000/svg">
<path d="M3.125 9.375H1.25C0.918479 9.375 0.600537 9.5067 0.366116 9.74112C0.131696 9.97554 0 10.2935 0 10.625V16.25C0 16.5815 0.131696 16.8995 0.366116 17.1339C0.600537 17.3683 0.918479 17.5 1.25 17.5H3.125C3.45652 17.5 3.77446 17.3683 4.00888 17.1339C4.2433 16.8995 4.375 16.5815 4.375 16.25V10.625C4.375 10.2935 4.2433 9.97554 4.00888 9.74112C3.77446 9.5067 3.45652 9.375 3.125 9.375ZM9.375 0H7.5C7.16848 0 6.85054 0.131696 6.61612 0.366116C6.3817 0.600537 6.25 0.918479 6.25 1.25V16.25C6.25 16.5815 6.3817 16.8995 6.61612 17.1339C6.85054 17.3683 7.16848 17.5 7.5 17.5H9.375C9.70652 17.5 10.0245 17.3683 10.2589 17.1339C10.4933 16.8995 10.625 16.5815 10.625 16.25V1.25C10.625 0.918479 10.4933 0.600537 10.2589 0.366116C10.0245 0.131696 9.70652 0 9.375 0ZM15.625 5H13.75C13.4185 5 13.1005 5.1317 12.8661 5.36612C12.6317 5.60054 12.5 5.91848 12.5 6.25V16.25C12.5 16.5815 12.6317 16.8995 12.8661 17.1339C13.1005 17.3683 13.4185 17.5 13.75 17.5H15.625C15.9565 17.5 16.2745 17.3683 16.5089 17.1339C16.7433 16.8995 16.875 16.5815 16.875 16.25V6.25C16.875 5.91848 16.7433 5.60054 16.5089 5.36612C16.2745 5.1317 15.9565 5 15.625 5Z" fill="#757575"/>
</svg>
