<svg width="647" height="387" viewBox="0 0 647 387" fill="none" xmlns="http://www.w3.org/2000/svg">
<path opacity="0.1" d="M314.331 141.722C314.331 141.722 286.91 200.048 228.222 197.745C148.264 194.675 90.0897 317.723 206.183 385.002H456.821C456.821 385.002 564.456 299.56 498.081 176.513C451.183 90.0471 331.758 108.21 314.331 141.722Z" fill="#61A9FF"/>
<path d="M177.224 97.21H485.524" stroke="#ECEFF5" stroke-width="0.6565" stroke-miterlimit="10"/>
<path d="M481.423 268.862H181.068C178.761 268.862 176.967 267.071 176.967 264.769V71.6287C176.967 69.3263 178.761 67.5356 181.068 67.5356H481.423C483.73 67.5356 485.523 69.3263 485.523 71.6287V265.025C485.523 267.071 483.73 268.862 481.423 268.862Z" stroke="#ECEFF5" stroke-width="0.6565" stroke-miterlimit="10"/>
<path opacity="0.72" d="M504.744 215.397H462.715C461.434 215.397 460.409 214.374 460.409 213.095C460.409 211.815 461.434 210.792 462.715 210.792H504.744C506.026 210.792 507.051 211.815 507.051 213.095C507.051 214.374 506.026 215.397 504.744 215.397Z" fill="#61A9FF"/>
<path d="M317.407 4.60467H248.981C247.699 4.60467 246.674 3.58141 246.674 2.30234C246.674 1.02326 247.699 0 248.981 0H317.407C318.688 0 319.713 1.02326 319.713 2.30234C319.713 3.58141 318.688 4.60467 317.407 4.60467Z" fill="#FF6B93"/>
<path d="M519.352 295.467H513.97C512.432 295.467 511.407 294.187 511.407 292.908V287.792C511.407 286.257 512.689 285.234 513.97 285.234H519.352C520.889 285.234 521.915 286.513 521.915 287.792V292.908C521.915 294.443 520.633 295.467 519.352 295.467Z" fill="#61A9FF"/>
<path d="M185.871 84.7715C203.643 77.7679 212.362 57.7092 205.346 39.9692C198.329 22.2292 178.235 13.5258 160.463 20.5294C142.691 27.5331 133.972 47.5918 140.988 65.3317C148.004 83.0717 168.099 91.7752 185.871 84.7715Z" fill="#FF6B93"/>
<path d="M167.516 63.9543C173.155 63.9543 178.793 64.2101 184.174 63.6985C185.712 63.6985 187.25 60.8845 185.2 60.1171C185.968 59.6054 186.993 59.3496 187.25 58.3263C187.506 57.5589 187.25 56.2798 186.225 56.024C188.275 56.5356 189.044 53.4659 187.506 52.4426C188.275 51.6751 189.044 50.9077 189.044 49.8844C189.3 48.8612 188.787 47.5821 187.762 47.0705C187.25 46.8147 186.481 46.8147 185.712 46.8147C183.406 46.8147 181.099 46.8147 178.536 46.8147C179.049 43.2332 179.305 39.1402 177.511 35.8146C176.999 34.7913 175.461 33.7681 174.18 34.5355C173.155 35.303 173.411 37.0937 173.411 38.1169C173.667 42.7216 171.104 47.3263 167.004 49.3728C167.26 49.3728 167.516 59.0938 167.516 63.9543Z" fill="#FDFDFD"/>
<path d="M165.466 49.373H157.009V63.9545H165.466V49.373Z" fill="#FDFDFD"/>
<path d="M509.869 140.699H416.585C414.535 140.699 412.741 138.908 412.741 136.862V44.7681C412.741 42.7216 414.535 40.9309 416.585 40.9309H509.869C511.92 40.9309 513.713 42.7216 513.713 44.7681V137.117C513.713 138.908 511.92 140.699 509.869 140.699Z" fill="#ECEFF5"/>
<path d="M509.869 140.699H416.585C414.535 140.699 412.741 138.908 412.741 136.862V44.7681C412.741 42.7216 414.535 40.9309 416.585 40.9309H509.869C511.92 40.9309 513.713 42.7216 513.713 44.7681V137.117C513.713 138.908 511.92 140.699 509.869 140.699Z" fill="#ECEFF5"/>
<path d="M530.371 117.42H438.881C436.318 117.42 434.268 115.373 434.268 112.815V22.2565C434.268 19.6984 436.318 17.6519 438.881 17.6519H530.371C532.934 17.6519 534.984 19.6984 534.984 22.2565V112.559C534.984 115.373 532.934 117.42 530.371 117.42Z" fill="#FF9777"/>
<path fill-rule="evenodd" clip-rule="evenodd" d="M502.181 50.3967H468.609L467.071 43.7455C466.815 42.4664 465.534 41.699 464.252 41.699H459.383C458.102 41.699 457.077 42.7222 457.077 44.0013C457.077 45.2804 458.102 46.3036 459.383 46.3036H463.227L469.89 73.1642C470.403 75.2108 472.453 77.0015 474.76 77.0015H496.543C498.85 77.0015 500.9 75.4666 501.412 73.1642L506.025 55.2572C506.282 52.699 504.488 50.3967 502.181 50.3967ZM496.799 71.6293C496.799 71.8852 496.543 72.141 496.287 72.141H474.503C474.247 72.141 473.991 71.8852 473.991 71.6293L469.634 54.7455H501.156L496.799 71.6293Z" fill="white"/>
<path fill-rule="evenodd" clip-rule="evenodd" d="M474.504 80.8391C472.197 80.8391 470.147 82.8856 470.147 85.188C470.147 87.4903 472.197 89.5368 474.504 89.5368C476.81 89.5368 478.86 87.4903 478.86 85.188C478.86 82.8856 476.81 80.8391 474.504 80.8391Z" fill="white"/>
<path fill-rule="evenodd" clip-rule="evenodd" d="M496.287 80.8391C493.98 80.8391 491.93 82.8856 491.93 85.188C491.93 87.4903 493.98 89.5368 496.287 89.5368C498.593 89.5368 500.644 87.4903 500.644 85.188C500.644 82.8856 498.593 80.8391 496.287 80.8391Z" fill="white"/>
<path d="M218.228 214.885H137.245C135.194 214.885 133.4 213.094 133.4 211.048V150.164C133.4 148.117 135.194 146.326 137.245 146.326H218.228C220.278 146.326 222.072 148.117 222.072 150.164V211.048C221.816 213.35 220.278 214.885 218.228 214.885Z" fill="#7EB9FF"/>
<path d="M175.43 199.792C186.47 199.792 195.419 190.858 195.419 179.838C195.419 168.818 186.47 159.885 175.43 159.885C164.39 159.885 155.44 168.818 155.44 179.838C155.44 190.858 164.39 199.792 175.43 199.792Z" fill="#7EB9FF" stroke="white" stroke-width="1.2043" stroke-miterlimit="10" stroke-linecap="round" stroke-linejoin="round"/>
<path d="M167.485 181.373L173.636 185.722L183.118 173.955" fill="#7EB9FF"/>
<path d="M167.485 181.373L173.636 185.722L183.118 173.955" stroke="white" stroke-width="1.2043" stroke-miterlimit="10" stroke-linecap="round" stroke-linejoin="round"/>
<path d="M412.724 337.409H461.929C474.743 337.409 485.25 347.898 485.25 360.689C485.25 373.479 474.743 383.968 461.929 383.968H404.267L412.724 337.409Z" fill="#E3AF9A"/>
<path d="M479.1 345.339L440.914 286.246L404.011 302.107L410.674 360.688L479.1 345.339Z" fill="#E3AF9A"/>
<path d="M415.543 337.409H461.673" stroke="#1C2337" stroke-width="0.6565" stroke-miterlimit="10" stroke-linecap="round" stroke-linejoin="round"/>
<path d="M331.741 208.734C331.741 208.734 282.792 208.734 246.914 244.037V343.037C246.914 343.037 419.131 345.595 419.131 343.037C419.131 340.479 419.131 239.688 419.131 239.688C419.131 239.688 383.765 208.734 331.741 208.734Z" fill="#C6D3ED"/>
<path d="M331.741 208.734C331.741 208.734 315.083 208.223 297.4 214.618C297.4 214.618 302.013 231.758 331.485 231.758C366.594 231.758 366.594 212.827 366.594 212.827C366.594 212.827 344.298 206.688 331.741 208.734Z" fill="#E3AF9A"/>
<path d="M258.958 337.409H210.01C197.196 337.409 186.688 347.897 186.688 360.688C186.688 373.479 197.196 383.967 210.01 383.967H267.672L258.958 337.409Z" fill="#E3AF9A"/>
<path d="M192.07 345.851L222.567 295.967L267.672 302.107L261.009 360.688L192.07 345.851Z" fill="#E3AF9A"/>
<path d="M246.913 337.409H210.009" stroke="#1C2337" stroke-width="0.6565" stroke-miterlimit="10" stroke-linecap="round" stroke-linejoin="round"/>
<path d="M254.089 237.385C254.089 237.385 225.386 258.874 197.196 305.944C197.196 305.944 205.397 333.316 257.677 337.409L254.089 237.385Z" fill="#C6D3ED"/>
<path d="M419.131 239.688C419.131 239.688 445.784 258.874 473.718 305.944C473.718 305.944 467.567 333.316 415.543 337.409L419.131 239.688Z" fill="#C6D3ED"/>
<path d="M411.187 383.968H254.602C250.245 383.968 246.914 380.386 246.914 376.293V277.548C246.914 273.2 250.501 269.874 254.602 269.874H411.187C415.543 269.874 418.875 273.455 418.875 277.548V376.293C419.131 380.642 415.543 383.968 411.187 383.968Z" fill="#ECEFF5"/>
<path d="M343.53 326.921C343.53 332.804 338.917 337.409 333.022 337.409C327.128 337.409 322.515 332.804 322.515 326.921C322.515 321.037 327.128 316.432 333.022 316.432C338.917 316.432 343.53 321.037 343.53 326.921Z" fill="#283252"/>
<path d="M304.319 140.943C304.575 149.129 298.168 156.036 289.967 156.292C281.767 156.548 274.847 150.153 274.591 141.966C274.335 133.78 280.742 126.873 288.942 126.618C297.143 126.362 304.063 132.757 304.319 140.943Z" fill="#E3AF9A"/>
<path d="M280.998 139.152C280.998 139.152 286.892 136.338 292.53 146.571" stroke="#283252" stroke-width="0.4726" stroke-miterlimit="10" stroke-linecap="round" stroke-linejoin="round"/>
<path d="M303.294 75.9668C303.294 75.9668 286.636 78.0133 284.329 95.1529C281.254 118.688 292.018 135.828 292.018 135.828L292.53 97.7111L303.294 75.9668Z" fill="#283252"/>
<path d="M373.513 156.292C381.723 156.292 388.377 149.649 388.377 141.455C388.377 133.26 381.723 126.617 373.513 126.617C365.304 126.617 358.649 133.26 358.649 141.455C358.649 149.649 365.304 156.292 373.513 156.292Z" fill="#E3AF9A"/>
<path d="M381.971 139.152C381.971 139.152 376.077 136.338 370.695 146.826" stroke="#283252" stroke-width="0.4726" stroke-miterlimit="10" stroke-linecap="round" stroke-linejoin="round"/>
<path d="M350.705 173.176C350.705 173.176 342.248 179.06 334.56 180.595C326.872 182.13 319.44 177.525 319.44 177.525L310.47 172.409L308.932 216.665L307.651 217.432C320.721 228.176 339.429 228.176 352.499 217.688L352.243 216.153L350.705 173.176Z" fill="#E3AF9A"/>
<path d="M307.907 172.153C307.907 172.153 314.058 196.711 332.766 196.199C348.655 195.944 352.756 172.153 352.756 172.153H307.907Z" fill="#283252"/>
<path d="M371.72 115.618C371.72 132.502 369.413 146.827 367.107 157.316C364.8 167.293 358.137 174.455 348.911 180.083L347.117 181.107C337.379 187.246 324.565 187.246 314.314 181.618C304.063 175.734 297.143 168.316 294.837 157.316C290.736 137.618 290.224 115.874 290.224 115.874C290.224 115.874 284.586 70.3386 328.409 71.106C372.232 71.6177 371.72 115.618 371.72 115.618Z" fill="#E3AF9A"/>
<path d="M347.629 115.362C347.629 115.362 338.659 113.571 338.147 118.431C338.147 118.431 337.891 121.757 345.835 123.036C353.78 124.315 356.855 124.059 357.88 120.99C358.905 118.176 351.986 115.873 347.629 115.362Z" fill="#283252"/>
<path d="M308.932 115.617C308.932 115.617 299.706 116.129 300.475 120.734C300.475 120.734 300.987 124.059 308.932 123.548C316.876 123.036 319.952 122.013 320.208 118.943C320.208 115.617 313.032 115.106 308.932 115.617Z" fill="#283252"/>
<path d="M312.264 139.919C314.245 139.919 315.852 138.316 315.852 136.338C315.852 134.36 314.245 132.757 312.264 132.757C310.282 132.757 308.676 134.36 308.676 136.338C308.676 138.316 310.282 139.919 312.264 139.919Z" fill="#283252"/>
<path d="M346.86 139.919C348.842 139.919 350.448 138.316 350.448 136.338C350.448 134.36 348.842 132.757 346.86 132.757C344.879 132.757 343.272 134.36 343.272 136.338C343.272 138.316 344.879 139.919 346.86 139.919Z" fill="#283252"/>
<path d="M330.203 149.641H326.358V140.688" stroke="#283252" stroke-width="0.4726" stroke-miterlimit="10" stroke-linecap="round" stroke-linejoin="round"/>
<path d="M317.901 157.315C317.901 157.315 321.489 162.432 337.891 160.129" stroke="#283252" stroke-width="0.4726" stroke-miterlimit="10" stroke-linecap="round" stroke-linejoin="round"/>
<path d="M292.018 137.362C292.018 137.362 301.5 85.4314 295.349 78.5244C295.349 78.5244 273.31 98.478 292.018 137.362Z" fill="#283252"/>
<path d="M369.926 135.315C369.926 135.315 354.293 90.5475 364.544 83.1289C364.8 83.1289 386.071 93.8731 369.926 135.315Z" fill="#283252"/>
<path d="M353.524 75.7107C353.524 75.7107 376.589 69.3154 378.895 93.362C380.689 110.502 369.669 135.572 369.669 135.572L369.157 97.455L353.524 75.7107Z" fill="#283252"/>
<path d="M348.142 77.2456C348.142 77.2456 347.629 107.688 370.694 107.943C370.694 107.943 375.051 80.827 348.142 77.2456Z" fill="#283252"/>
<path d="M357.624 89.2684C357.624 89.2684 341.479 87.7336 324.052 95.6638C306.882 103.338 278.691 107.431 274.335 87.2219C269.978 65.9893 293.299 47.5705 336.097 61.6404C369.926 72.6404 359.931 85.1754 359.931 85.1754L357.624 89.2684Z" fill="#283252"/>
<path d="M353.524 78.0129C353.524 78.0129 370.951 66.5012 377.101 87.9897L363.775 92.5944L353.524 78.0129Z" fill="#283252"/>
<path d="M361.213 80.0596C361.213 80.0596 360.444 60.8735 333.279 49.6176C330.972 48.5944 328.409 48.8502 326.359 50.3851C323.027 52.6874 322.002 57.2921 324.565 60.6177L329.691 67.7805L361.213 80.0596Z" fill="#283252"/>
<path d="M0 384.404H646" stroke="#1C2337" stroke-width="0.6565" stroke-miterlimit="10" stroke-linecap="round" stroke-linejoin="round"/>
<g opacity="0.7">
<path opacity="0.7" d="M608.314 331.113V318.963H547.497V375.154C547.497 376.71 547.803 378.25 548.399 379.688C548.995 381.125 549.869 382.431 550.97 383.531C552.071 384.631 553.379 385.503 554.818 386.098C556.256 386.694 557.799 387 559.356 387H596.455C599.6 387 602.617 385.752 604.841 383.531C607.065 381.309 608.314 378.296 608.314 375.154V362.701C612.503 362.693 616.517 361.026 619.476 358.064C622.434 355.103 624.096 351.091 624.096 346.907C624.096 342.723 622.434 338.711 619.476 335.75C616.517 332.788 612.503 331.121 608.314 331.113ZM608.314 356.626V337.187C610.895 337.187 613.37 338.211 615.195 340.034C617.02 341.857 618.045 344.329 618.045 346.907C618.045 349.485 617.02 351.957 615.195 353.78C613.37 355.602 610.895 356.626 608.314 356.626Z" fill="url(#paint0_linear_2457_49760)"/>
</g>
<path d="M606.357 333.014C603.502 333.014 600.711 333.86 598.336 335.444C595.962 337.029 594.112 339.281 593.019 341.916C591.926 344.551 591.64 347.451 592.197 350.248C592.754 353.046 594.129 355.615 596.149 357.632C598.168 359.649 600.74 361.022 603.541 361.579C606.341 362.135 609.244 361.85 611.883 360.758C614.521 359.667 616.775 357.818 618.362 355.447C619.948 353.075 620.795 350.287 620.795 347.435C620.795 343.61 619.274 339.942 616.566 337.238C613.859 334.533 610.187 333.014 606.357 333.014ZM606.357 356.309C604.6 356.309 602.883 355.789 601.421 354.814C599.96 353.839 598.822 352.453 598.149 350.831C597.477 349.209 597.301 347.425 597.644 345.704C597.986 343.982 598.833 342.401 600.075 341.16C601.318 339.919 602.901 339.074 604.624 338.731C606.348 338.389 608.134 338.564 609.758 339.236C611.381 339.908 612.769 341.045 613.745 342.505C614.721 343.964 615.242 345.68 615.242 347.435C615.242 349.789 614.306 352.046 612.64 353.71C610.974 355.374 608.714 356.309 606.357 356.309Z" fill="#A0CCFF"/>
<path d="M550.829 321.922H606.358V376.816C606.358 378.733 605.596 380.571 604.239 381.926C602.882 383.281 601.042 384.042 599.124 384.042H558.063C556.144 384.042 554.304 383.281 552.947 381.926C551.591 380.571 550.829 378.733 550.829 376.816V321.922Z" fill="#A0CCFF"/>
<path opacity="0.1" d="M596.362 321.922V373.226C596.362 376.095 595.221 378.846 593.19 380.874C591.16 382.903 588.406 384.042 585.534 384.042H591.087C593.958 384.042 596.713 382.903 598.743 380.874C600.774 378.846 601.915 376.095 601.915 373.226V321.922H596.362Z" fill="black"/>
<path d="M561.786 280.571C560.85 280.731 559.793 280.983 559.334 281.814C558.606 283.133 559.926 284.62 561.13 285.526C563.355 287.201 565.701 288.845 567.213 291.182C568.726 293.519 569.201 296.78 567.548 299.02C565.389 301.945 560.238 302.574 559.739 306.173C559.419 308.484 561.419 310.455 563.446 311.615C568.448 314.477 574.896 315.24 578.519 319.718C580.017 316.64 583.37 314.861 586.711 314.101C590.053 313.341 593.525 313.398 596.913 312.882C598.006 312.716 599.238 312.382 599.727 311.391C600.674 309.471 597.975 307.168 598.907 305.241C599.616 303.774 601.699 303.888 603.22 303.301C605.697 302.344 606.718 299.16 606.015 296.603C605.312 294.045 603.326 292.046 601.238 290.407C595.611 285.991 588.845 283.393 582.001 281.525C578.819 280.656 575.082 279.294 571.776 279.162C568.585 279.035 564.945 280.031 561.786 280.571Z" fill="#EEEEEE"/>
<path d="M62.5391 325.819C74.3961 338.528 75.0089 357.207 75.0089 357.207C75.0089 357.207 56.3977 355.281 44.5407 342.572C32.6837 329.864 32.0708 311.185 32.0708 311.185C32.0708 311.185 50.682 313.11 62.5391 325.819Z" fill="#61A9FF"/>
<path d="M99.8662 345.656C87.1427 357.499 68.4419 358.111 68.4419 358.111C68.4419 358.111 70.37 339.522 83.0934 327.678C95.8168 315.835 114.518 315.223 114.518 315.223C114.518 315.223 112.59 333.812 99.8662 345.656Z" fill="#61A9FF"/>
<path d="M96.7041 383.375H49.9066C49.0089 383.375 48.1292 383.123 47.3681 382.647C46.607 382.172 45.9951 381.492 45.6024 380.685L35.4135 359.766C35.0585 359.037 34.8948 358.23 34.9379 357.42C34.981 356.611 35.2294 355.826 35.6598 355.139C36.0902 354.452 36.6884 353.885 37.3982 353.492C38.1081 353.099 38.9062 352.893 39.7177 352.893H106.893C107.705 352.893 108.503 353.099 109.213 353.492C109.922 353.885 110.521 354.452 110.951 355.139C111.381 355.826 111.63 356.611 111.673 357.42C111.716 358.23 111.552 359.037 111.197 359.766L101.008 380.685C100.616 381.492 100.004 382.172 99.2427 382.647C98.4816 383.123 97.6019 383.375 96.7041 383.375Z" fill="#283252"/>
<defs>
<linearGradient id="paint0_linear_2457_49760" x1="585.812" y1="387" x2="585.812" y2="318.963" gradientUnits="userSpaceOnUse">
<stop stop-color="#808080" stop-opacity="0.25"/>
<stop offset="0.53514" stop-color="#808080" stop-opacity="0.12"/>
<stop offset="1" stop-color="#808080" stop-opacity="0.1"/>
</linearGradient>
</defs>
</svg>
