<svg width="13" height="17" viewBox="0 0 13 17" fill="none" xmlns="http://www.w3.org/2000/svg">
<path d="M7.11249 9.62274H5.38835C5.22973 9.62274 5.10099 9.51011 5.10099 9.37133V6.85721C5.10099 6.71843 5.22973 6.6058 5.38835 6.6058C5.54697 6.6058 5.67571 6.71843 5.67571 6.85721V9.11992H7.11249C7.27111 9.11992 7.39985 9.23255 7.39985 9.37133C7.39985 9.51011 7.27111 9.62274 7.11249 9.62274ZM4.23892 9.62274C4.1418 9.62274 4.04639 9.57899 3.99237 9.50055L2.26823 6.98643C2.18605 6.86777 2.23087 6.7129 2.36708 6.6415C2.50156 6.56959 2.67915 6.60881 2.76134 6.72798L4.48547 9.2421C4.56766 9.36077 4.52283 9.51564 4.38662 9.58704C4.34065 9.61168 4.2895 9.62274 4.23892 9.62274Z" fill="#82868C"/>
<path d="M2.51453 9.62276C2.46395 9.62276 2.4128 9.6117 2.36683 9.58706C2.23062 9.51566 2.18637 9.36129 2.26798 9.24212L3.99212 6.728C4.0743 6.60884 4.25189 6.57012 4.38637 6.64152C4.52258 6.71292 4.56683 6.86729 4.48522 6.98646L2.76108 9.50057C2.70706 9.57901 2.61165 9.62276 2.51453 9.62276ZM9.26741 9.62276H8.26166C8.10304 9.62276 7.9743 9.51013 7.9743 9.37135C7.9743 9.23257 8.10304 9.11994 8.26166 9.11994H9.26741C9.50476 9.11994 9.69844 8.95048 9.69844 8.74282C9.69844 8.53515 9.50476 8.3657 9.26741 8.3657H8.98005C8.42545 8.3657 7.9743 7.97098 7.9743 7.48576C7.9743 7.00053 8.42545 6.60582 8.98005 6.60582H9.9858C10.1444 6.60582 10.2732 6.71845 10.2732 6.85723C10.2732 6.99601 10.1444 7.10864 9.9858 7.10864H8.98005C8.7427 7.10864 8.54902 7.27809 8.54902 7.48576C8.54902 7.69343 8.7427 7.86288 8.98005 7.86288H9.26741C9.82201 7.86288 10.2732 8.25759 10.2732 8.74282C10.2732 9.22804 9.82201 9.62276 9.26741 9.62276Z" fill="#82868C"/>
<path d="M12.4607 3.32355L12.4591 3.32003L12.4572 3.31651L12.4554 3.31299L12.4512 3.30561L12.4492 3.30226L12.4425 3.29136L12.4403 3.28818L12.4381 3.28516L12.4361 3.28214L12.4341 3.27929L12.4321 3.27644L12.4301 3.27376V3.27276L12.4272 3.26924L12.4254 3.26689L12.4244 3.26572L12.4225 3.26337L12.4214 3.2622L12.4197 3.26002L12.4133 3.25298L12.4116 3.25097L12.4103 3.24946L12.4088 3.24761L12.4073 3.2461L12.4058 3.24443L12.4041 3.24275L12.4027 3.24124L12.4009 3.2394L12.3997 3.23806L12.3977 3.23605L12.3945 3.23269L12.3905 3.22867L9.27147 0.109462C9.26376 0.101416 9.25554 0.0938723 9.24699 0.0864967L9.24565 0.0853234C9.24146 0.0818032 9.23727 0.0782831 9.23291 0.0749306H9.23191L9.22839 0.0722484L9.22554 0.0702369L9.22118 0.0670521L9.21816 0.0650406L9.21447 0.0625261L9.21129 0.060347C9.2066 0.0569945 9.20157 0.0541447 9.19671 0.051295L9.18933 0.0471044L9.18346 0.0429138L9.17994 0.0410697C9.12824 0.0139554 9.0707 -0.000141323 9.01232 1.06808e-06H1.14842C0.855049 0.0003429 0.573017 0.113335 0.360566 0.315643C0.35252 0.322516 0.343804 0.329557 0.337099 0.337267C0.230272 0.443655 0.145503 0.570088 0.0876555 0.709314C0.0298077 0.84854 1.95662e-05 0.997818 0 1.14858V15.4158C0.000306724 15.7191 0.120873 16.0098 0.335255 16.2243L0.336763 16.2257C0.442981 16.3323 0.569194 16.417 0.708181 16.4749C0.847167 16.5327 0.996196 16.5626 1.14674 16.5628H11.3516C11.6559 16.5621 11.9476 16.4409 12.1629 16.2257C12.3781 16.0104 12.4993 15.7187 12.5 15.4143V3.48766C12.5001 3.43096 12.4867 3.37506 12.4609 3.32455L12.4607 3.32355ZM9.37305 1.23055L11.2693 3.12675H9.87996C9.81354 3.1269 9.74776 3.11393 9.68637 3.08859C9.62498 3.06324 9.56921 3.02603 9.52224 2.97907L9.52073 2.97757C9.47378 2.9306 9.43656 2.87482 9.41122 2.81343C9.38587 2.75205 9.3729 2.68626 9.37305 2.61985V1.23055ZM11.779 15.4155C11.7785 15.5287 11.7333 15.6371 11.6532 15.7172C11.5732 15.7972 11.4648 15.8424 11.3516 15.843H1.14842C1.09241 15.8431 1.03692 15.8322 0.985139 15.8109C0.933358 15.7895 0.886306 15.7582 0.846686 15.7186L0.845177 15.7172C0.805591 15.6776 0.774224 15.6306 0.752879 15.5788C0.731533 15.527 0.720631 15.4715 0.720797 15.4155V1.14808C0.720862 1.09199 0.732001 1.03646 0.753575 0.984682C0.775149 0.932903 0.806734 0.885894 0.846518 0.846351C0.851212 0.841658 0.855738 0.836797 0.860264 0.831935C0.938874 0.760093 1.04159 0.720372 1.14808 0.720631H8.65192V2.61985C8.65209 2.78084 8.68403 2.94021 8.7459 3.08884C8.80777 3.23747 8.89836 3.37243 9.01248 3.48598V3.48598C9.24186 3.71593 9.55315 3.84538 9.87794 3.84587H11.779V15.4155Z" fill="#82868C"/>
</svg>
