<svg width="17" height="17" viewBox="0 0 17 17" fill="none" xmlns="http://www.w3.org/2000/svg">
<mask id="path-1-outside-1_2908_217" maskUnits="userSpaceOnUse" x="-0.700195" y="-0.699951" width="18" height="18" fill="black">
<rect fill="white" x="-0.700195" y="-0.699951" width="18" height="18"/>
<path fill-rule="evenodd" clip-rule="evenodd" d="M0.386825 7.11907C0.394807 7.0646 0.416154 7.01296 0.448959 6.96876C0.481765 6.92455 0.524995 6.88915 0.574814 6.86573L2.57349 5.92707L1.82349 3.85307C1.80481 3.80131 1.79923 3.74573 1.80726 3.69129C1.81528 3.63685 1.83667 3.58523 1.86949 3.54106C2.34083 2.90506 2.90482 2.34107 3.54082 1.86974C3.58498 1.83691 3.6366 1.81553 3.69105 1.8075C3.74549 1.79947 3.80107 1.80505 3.85283 1.82374L5.92615 2.56908L6.86616 0.575729C6.88943 0.525871 6.92469 0.482551 6.96878 0.449631C7.01286 0.41671 7.06441 0.395221 7.11882 0.387069C7.9021 0.271042 8.69821 0.271042 9.48149 0.387069C9.53596 0.395051 9.5876 0.416398 9.6318 0.449203C9.67601 0.482009 9.71141 0.525239 9.73483 0.575058L10.6748 2.56908L12.7482 1.82374C12.7998 1.80517 12.8553 1.79966 12.9096 1.80768C12.9639 1.81571 13.0154 1.83702 13.0595 1.86974C13.6955 2.34107 14.2595 2.90506 14.7308 3.54106C14.7636 3.58523 14.785 3.63685 14.7931 3.69129C14.8011 3.74573 14.7955 3.80131 14.7768 3.85307L14.0268 5.92707L16.0255 6.86573C16.0753 6.88915 16.1185 6.92455 16.1514 6.96876C16.1842 7.01296 16.2055 7.0646 16.2135 7.11907C16.3295 7.90235 16.3295 8.69845 16.2135 9.48174C16.2055 9.5362 16.1842 9.58784 16.1514 9.63205C16.1185 9.67625 16.0753 9.71165 16.0255 9.73507L14.0268 10.6737L14.7768 12.7477C14.7955 12.7995 14.8011 12.8551 14.7931 12.9095C14.785 12.964 14.7636 13.0156 14.7308 13.0597C14.2595 13.6957 13.6955 14.2597 13.0595 14.7311C13.0153 14.7639 12.9637 14.7853 12.9093 14.7933C12.8548 14.8013 12.7992 14.7957 12.7475 14.7771L10.6755 14.0317L9.73483 16.0251C9.7115 16.075 9.67613 16.1184 9.63192 16.1513C9.58771 16.1842 9.53603 16.2057 9.48149 16.2137C8.69821 16.3298 7.9021 16.3298 7.11882 16.2137C7.06435 16.2058 7.01272 16.1844 6.96851 16.1516C6.92431 16.1188 6.8889 16.0756 6.86548 16.0257L5.92615 14.0317L3.85283 14.7771C3.80107 14.7957 3.74549 14.8013 3.69105 14.7933C3.6366 14.7853 3.58498 14.7639 3.54082 14.7311C2.90446 14.2593 2.34127 13.6961 1.86949 13.0597C1.83667 13.0156 1.81528 12.964 1.80726 12.9095C1.79923 12.8551 1.80481 12.7995 1.82349 12.7477L2.57349 10.6737L0.574814 9.73507C0.524995 9.71165 0.481765 9.67625 0.448959 9.63205C0.416154 9.58784 0.394807 9.5362 0.386825 9.48174C0.270798 8.69845 0.270798 7.90235 0.386825 7.11907V7.11907ZM1.02015 7.39307L3.13282 6.40306C3.20814 6.36777 3.26754 6.30561 3.29936 6.22877C3.33119 6.15192 3.33313 6.06595 3.30481 5.98774L2.50682 3.80772C2.97949 3.13306 3.80549 2.51573 3.80549 2.51573L5.98749 3.30506C6.0657 3.33338 6.15167 3.33143 6.22852 3.29961C6.30537 3.26778 6.36753 3.20838 6.40282 3.13306L7.40015 1.02173C7.40015 1.02173 7.93482 0.967066 8.30016 0.967066C8.66549 0.967066 9.20016 1.02039 9.20016 1.02039L10.1975 3.13306C10.2328 3.20838 10.2949 3.26778 10.3718 3.29961C10.4486 3.33143 10.5346 3.33338 10.6128 3.30506L12.8082 2.5164C12.8082 2.5164 13.6548 3.20107 14.0848 3.80707L13.2955 5.98774C13.2672 6.06595 13.2691 6.15192 13.301 6.22877C13.3328 6.30561 13.3922 6.36777 13.4675 6.40306L15.5788 7.39374C15.5788 7.39374 15.6335 7.93507 15.6335 8.3004C15.6335 8.66573 15.5788 9.20706 15.5788 9.20706L13.4675 10.1977C13.3922 10.233 13.3328 10.2952 13.301 10.372C13.2691 10.4489 13.2672 10.5349 13.2955 10.6131L14.0848 12.7931C13.6548 13.3997 12.8082 14.0844 12.8082 14.0844L10.6128 13.2957C10.5346 13.2674 10.4486 13.2694 10.3718 13.3012C10.2949 13.333 10.2328 13.3924 10.1975 13.4677L9.20016 15.5804C9.20016 15.5804 8.66549 15.6337 8.30016 15.6337C7.93482 15.6337 7.40015 15.5791 7.40015 15.5791L6.40282 13.4677C6.36753 13.3924 6.30537 13.333 6.22852 13.3012C6.15167 13.2694 6.0657 13.2674 5.98749 13.2957L3.80549 14.0851C3.80549 14.0851 2.97882 13.4677 2.50682 12.7937L3.30481 10.6131C3.33313 10.5349 3.33119 10.4489 3.29936 10.372C3.26754 10.2952 3.20814 10.233 3.13282 10.1977L1.02082 9.20773C1.02082 9.20773 0.966822 8.66573 0.966822 8.3004C0.966822 7.93507 1.02015 7.39374 1.02015 7.39374V7.39307ZM8.30016 11.6337C9.18421 11.6337 10.0321 11.2825 10.6572 10.6574C11.2823 10.0323 11.6335 9.18446 11.6335 8.3004C11.6335 7.41635 11.2823 6.56851 10.6572 5.94339C10.0321 5.31826 9.18421 4.96707 8.30016 4.96707C7.4161 4.96707 6.56826 5.31826 5.94314 5.94339C5.31802 6.56851 4.96682 7.41635 4.96682 8.3004C4.96682 9.18446 5.31802 10.0323 5.94314 10.6574C6.56826 11.2825 7.4161 11.6337 8.30016 11.6337ZM8.30016 10.9671C9.0074 10.9671 9.68568 10.6861 10.1858 10.186C10.6859 9.68592 10.9668 9.00764 10.9668 8.3004C10.9668 7.59316 10.6859 6.91488 10.1858 6.41478C9.68568 5.91468 9.0074 5.63373 8.30016 5.63373C7.59291 5.63373 6.91463 5.91468 6.41454 6.41478C5.91444 6.91488 5.63349 7.59316 5.63349 8.3004C5.63349 9.00764 5.91444 9.68592 6.41454 10.186C6.91463 10.6861 7.59291 10.9671 8.30016 10.9671Z"/>
</mask>
<path fill-rule="evenodd" clip-rule="evenodd" d="M0.386825 7.11907C0.394807 7.0646 0.416154 7.01296 0.448959 6.96876C0.481765 6.92455 0.524995 6.88915 0.574814 6.86573L2.57349 5.92707L1.82349 3.85307C1.80481 3.80131 1.79923 3.74573 1.80726 3.69129C1.81528 3.63685 1.83667 3.58523 1.86949 3.54106C2.34083 2.90506 2.90482 2.34107 3.54082 1.86974C3.58498 1.83691 3.6366 1.81553 3.69105 1.8075C3.74549 1.79947 3.80107 1.80505 3.85283 1.82374L5.92615 2.56908L6.86616 0.575729C6.88943 0.525871 6.92469 0.482551 6.96878 0.449631C7.01286 0.41671 7.06441 0.395221 7.11882 0.387069C7.9021 0.271042 8.69821 0.271042 9.48149 0.387069C9.53596 0.395051 9.5876 0.416398 9.6318 0.449203C9.67601 0.482009 9.71141 0.525239 9.73483 0.575058L10.6748 2.56908L12.7482 1.82374C12.7998 1.80517 12.8553 1.79966 12.9096 1.80768C12.9639 1.81571 13.0154 1.83702 13.0595 1.86974C13.6955 2.34107 14.2595 2.90506 14.7308 3.54106C14.7636 3.58523 14.785 3.63685 14.7931 3.69129C14.8011 3.74573 14.7955 3.80131 14.7768 3.85307L14.0268 5.92707L16.0255 6.86573C16.0753 6.88915 16.1185 6.92455 16.1514 6.96876C16.1842 7.01296 16.2055 7.0646 16.2135 7.11907C16.3295 7.90235 16.3295 8.69845 16.2135 9.48174C16.2055 9.5362 16.1842 9.58784 16.1514 9.63205C16.1185 9.67625 16.0753 9.71165 16.0255 9.73507L14.0268 10.6737L14.7768 12.7477C14.7955 12.7995 14.8011 12.8551 14.7931 12.9095C14.785 12.964 14.7636 13.0156 14.7308 13.0597C14.2595 13.6957 13.6955 14.2597 13.0595 14.7311C13.0153 14.7639 12.9637 14.7853 12.9093 14.7933C12.8548 14.8013 12.7992 14.7957 12.7475 14.7771L10.6755 14.0317L9.73483 16.0251C9.7115 16.075 9.67613 16.1184 9.63192 16.1513C9.58771 16.1842 9.53603 16.2057 9.48149 16.2137C8.69821 16.3298 7.9021 16.3298 7.11882 16.2137C7.06435 16.2058 7.01272 16.1844 6.96851 16.1516C6.92431 16.1188 6.8889 16.0756 6.86548 16.0257L5.92615 14.0317L3.85283 14.7771C3.80107 14.7957 3.74549 14.8013 3.69105 14.7933C3.6366 14.7853 3.58498 14.7639 3.54082 14.7311C2.90446 14.2593 2.34127 13.6961 1.86949 13.0597C1.83667 13.0156 1.81528 12.964 1.80726 12.9095C1.79923 12.8551 1.80481 12.7995 1.82349 12.7477L2.57349 10.6737L0.574814 9.73507C0.524995 9.71165 0.481765 9.67625 0.448959 9.63205C0.416154 9.58784 0.394807 9.5362 0.386825 9.48174C0.270798 8.69845 0.270798 7.90235 0.386825 7.11907V7.11907ZM1.02015 7.39307L3.13282 6.40306C3.20814 6.36777 3.26754 6.30561 3.29936 6.22877C3.33119 6.15192 3.33313 6.06595 3.30481 5.98774L2.50682 3.80772C2.97949 3.13306 3.80549 2.51573 3.80549 2.51573L5.98749 3.30506C6.0657 3.33338 6.15167 3.33143 6.22852 3.29961C6.30537 3.26778 6.36753 3.20838 6.40282 3.13306L7.40015 1.02173C7.40015 1.02173 7.93482 0.967066 8.30016 0.967066C8.66549 0.967066 9.20016 1.02039 9.20016 1.02039L10.1975 3.13306C10.2328 3.20838 10.2949 3.26778 10.3718 3.29961C10.4486 3.33143 10.5346 3.33338 10.6128 3.30506L12.8082 2.5164C12.8082 2.5164 13.6548 3.20107 14.0848 3.80707L13.2955 5.98774C13.2672 6.06595 13.2691 6.15192 13.301 6.22877C13.3328 6.30561 13.3922 6.36777 13.4675 6.40306L15.5788 7.39374C15.5788 7.39374 15.6335 7.93507 15.6335 8.3004C15.6335 8.66573 15.5788 9.20706 15.5788 9.20706L13.4675 10.1977C13.3922 10.233 13.3328 10.2952 13.301 10.372C13.2691 10.4489 13.2672 10.5349 13.2955 10.6131L14.0848 12.7931C13.6548 13.3997 12.8082 14.0844 12.8082 14.0844L10.6128 13.2957C10.5346 13.2674 10.4486 13.2694 10.3718 13.3012C10.2949 13.333 10.2328 13.3924 10.1975 13.4677L9.20016 15.5804C9.20016 15.5804 8.66549 15.6337 8.30016 15.6337C7.93482 15.6337 7.40015 15.5791 7.40015 15.5791L6.40282 13.4677C6.36753 13.3924 6.30537 13.333 6.22852 13.3012C6.15167 13.2694 6.0657 13.2674 5.98749 13.2957L3.80549 14.0851C3.80549 14.0851 2.97882 13.4677 2.50682 12.7937L3.30481 10.6131C3.33313 10.5349 3.33119 10.4489 3.29936 10.372C3.26754 10.2952 3.20814 10.233 3.13282 10.1977L1.02082 9.20773C1.02082 9.20773 0.966822 8.66573 0.966822 8.3004C0.966822 7.93507 1.02015 7.39374 1.02015 7.39374V7.39307ZM8.30016 11.6337C9.18421 11.6337 10.0321 11.2825 10.6572 10.6574C11.2823 10.0323 11.6335 9.18446 11.6335 8.3004C11.6335 7.41635 11.2823 6.56851 10.6572 5.94339C10.0321 5.31826 9.18421 4.96707 8.30016 4.96707C7.4161 4.96707 6.56826 5.31826 5.94314 5.94339C5.31802 6.56851 4.96682 7.41635 4.96682 8.3004C4.96682 9.18446 5.31802 10.0323 5.94314 10.6574C6.56826 11.2825 7.4161 11.6337 8.30016 11.6337ZM8.30016 10.9671C9.0074 10.9671 9.68568 10.6861 10.1858 10.186C10.6859 9.68592 10.9668 9.00764 10.9668 8.3004C10.9668 7.59316 10.6859 6.91488 10.1858 6.41478C9.68568 5.91468 9.0074 5.63373 8.30016 5.63373C7.59291 5.63373 6.91463 5.91468 6.41454 6.41478C5.91444 6.91488 5.63349 7.59316 5.63349 8.3004C5.63349 9.00764 5.91444 9.68592 6.41454 10.186C6.91463 10.6861 7.59291 10.9671 8.30016 10.9671Z" fill="#82868C"/>
<path fill-rule="evenodd" clip-rule="evenodd" d="M0.386825 7.11907C0.394807 7.0646 0.416154 7.01296 0.448959 6.96876C0.481765 6.92455 0.524995 6.88915 0.574814 6.86573L2.57349 5.92707L1.82349 3.85307C1.80481 3.80131 1.79923 3.74573 1.80726 3.69129C1.81528 3.63685 1.83667 3.58523 1.86949 3.54106C2.34083 2.90506 2.90482 2.34107 3.54082 1.86974C3.58498 1.83691 3.6366 1.81553 3.69105 1.8075C3.74549 1.79947 3.80107 1.80505 3.85283 1.82374L5.92615 2.56908L6.86616 0.575729C6.88943 0.525871 6.92469 0.482551 6.96878 0.449631C7.01286 0.41671 7.06441 0.395221 7.11882 0.387069C7.9021 0.271042 8.69821 0.271042 9.48149 0.387069C9.53596 0.395051 9.5876 0.416398 9.6318 0.449203C9.67601 0.482009 9.71141 0.525239 9.73483 0.575058L10.6748 2.56908L12.7482 1.82374C12.7998 1.80517 12.8553 1.79966 12.9096 1.80768C12.9639 1.81571 13.0154 1.83702 13.0595 1.86974C13.6955 2.34107 14.2595 2.90506 14.7308 3.54106C14.7636 3.58523 14.785 3.63685 14.7931 3.69129C14.8011 3.74573 14.7955 3.80131 14.7768 3.85307L14.0268 5.92707L16.0255 6.86573C16.0753 6.88915 16.1185 6.92455 16.1514 6.96876C16.1842 7.01296 16.2055 7.0646 16.2135 7.11907C16.3295 7.90235 16.3295 8.69845 16.2135 9.48174C16.2055 9.5362 16.1842 9.58784 16.1514 9.63205C16.1185 9.67625 16.0753 9.71165 16.0255 9.73507L14.0268 10.6737L14.7768 12.7477C14.7955 12.7995 14.8011 12.8551 14.7931 12.9095C14.785 12.964 14.7636 13.0156 14.7308 13.0597C14.2595 13.6957 13.6955 14.2597 13.0595 14.7311C13.0153 14.7639 12.9637 14.7853 12.9093 14.7933C12.8548 14.8013 12.7992 14.7957 12.7475 14.7771L10.6755 14.0317L9.73483 16.0251C9.7115 16.075 9.67613 16.1184 9.63192 16.1513C9.58771 16.1842 9.53603 16.2057 9.48149 16.2137C8.69821 16.3298 7.9021 16.3298 7.11882 16.2137C7.06435 16.2058 7.01272 16.1844 6.96851 16.1516C6.92431 16.1188 6.8889 16.0756 6.86548 16.0257L5.92615 14.0317L3.85283 14.7771C3.80107 14.7957 3.74549 14.8013 3.69105 14.7933C3.6366 14.7853 3.58498 14.7639 3.54082 14.7311C2.90446 14.2593 2.34127 13.6961 1.86949 13.0597C1.83667 13.0156 1.81528 12.964 1.80726 12.9095C1.79923 12.8551 1.80481 12.7995 1.82349 12.7477L2.57349 10.6737L0.574814 9.73507C0.524995 9.71165 0.481765 9.67625 0.448959 9.63205C0.416154 9.58784 0.394807 9.5362 0.386825 9.48174C0.270798 8.69845 0.270798 7.90235 0.386825 7.11907V7.11907ZM1.02015 7.39307L3.13282 6.40306C3.20814 6.36777 3.26754 6.30561 3.29936 6.22877C3.33119 6.15192 3.33313 6.06595 3.30481 5.98774L2.50682 3.80772C2.97949 3.13306 3.80549 2.51573 3.80549 2.51573L5.98749 3.30506C6.0657 3.33338 6.15167 3.33143 6.22852 3.29961C6.30537 3.26778 6.36753 3.20838 6.40282 3.13306L7.40015 1.02173C7.40015 1.02173 7.93482 0.967066 8.30016 0.967066C8.66549 0.967066 9.20016 1.02039 9.20016 1.02039L10.1975 3.13306C10.2328 3.20838 10.2949 3.26778 10.3718 3.29961C10.4486 3.33143 10.5346 3.33338 10.6128 3.30506L12.8082 2.5164C12.8082 2.5164 13.6548 3.20107 14.0848 3.80707L13.2955 5.98774C13.2672 6.06595 13.2691 6.15192 13.301 6.22877C13.3328 6.30561 13.3922 6.36777 13.4675 6.40306L15.5788 7.39374C15.5788 7.39374 15.6335 7.93507 15.6335 8.3004C15.6335 8.66573 15.5788 9.20706 15.5788 9.20706L13.4675 10.1977C13.3922 10.233 13.3328 10.2952 13.301 10.372C13.2691 10.4489 13.2672 10.5349 13.2955 10.6131L14.0848 12.7931C13.6548 13.3997 12.8082 14.0844 12.8082 14.0844L10.6128 13.2957C10.5346 13.2674 10.4486 13.2694 10.3718 13.3012C10.2949 13.333 10.2328 13.3924 10.1975 13.4677L9.20016 15.5804C9.20016 15.5804 8.66549 15.6337 8.30016 15.6337C7.93482 15.6337 7.40015 15.5791 7.40015 15.5791L6.40282 13.4677C6.36753 13.3924 6.30537 13.333 6.22852 13.3012C6.15167 13.2694 6.0657 13.2674 5.98749 13.2957L3.80549 14.0851C3.80549 14.0851 2.97882 13.4677 2.50682 12.7937L3.30481 10.6131C3.33313 10.5349 3.33119 10.4489 3.29936 10.372C3.26754 10.2952 3.20814 10.233 3.13282 10.1977L1.02082 9.20773C1.02082 9.20773 0.966822 8.66573 0.966822 8.3004C0.966822 7.93507 1.02015 7.39374 1.02015 7.39374V7.39307ZM8.30016 11.6337C9.18421 11.6337 10.0321 11.2825 10.6572 10.6574C11.2823 10.0323 11.6335 9.18446 11.6335 8.3004C11.6335 7.41635 11.2823 6.56851 10.6572 5.94339C10.0321 5.31826 9.18421 4.96707 8.30016 4.96707C7.4161 4.96707 6.56826 5.31826 5.94314 5.94339C5.31802 6.56851 4.96682 7.41635 4.96682 8.3004C4.96682 9.18446 5.31802 10.0323 5.94314 10.6574C6.56826 11.2825 7.4161 11.6337 8.30016 11.6337ZM8.30016 10.9671C9.0074 10.9671 9.68568 10.6861 10.1858 10.186C10.6859 9.68592 10.9668 9.00764 10.9668 8.3004C10.9668 7.59316 10.6859 6.91488 10.1858 6.41478C9.68568 5.91468 9.0074 5.63373 8.30016 5.63373C7.59291 5.63373 6.91463 5.91468 6.41454 6.41478C5.91444 6.91488 5.63349 7.59316 5.63349 8.3004C5.63349 9.00764 5.91444 9.68592 6.41454 10.186C6.91463 10.6861 7.59291 10.9671 8.30016 10.9671Z" stroke="#82868C" stroke-width="0.6" mask="url(#path-1-outside-1_2908_217)"/>
</svg>
