<svg width="17" height="17" viewBox="0 0 17 17" fill="none" xmlns="http://www.w3.org/2000/svg">
<path d="M15.9167 7.25L8.91667 0.25C8.75 0.0833333 8.58333 0 8.33333 0H0.833333C0.333333 0 0 0.333333 0 0.833333V8.33333C0 8.58333 0.0833333 8.75 0.25 8.91667L7.25 15.9167C8.25 16.9167 9.83333 16.9167 10.75 15.9167L15.9167 10.75C16.9167 9.83333 16.9167 8.25 15.9167 7.25ZM4.58333 5.83333C3.91667 5.83333 3.33333 5.25 3.33333 4.58333C3.33333 3.91667 3.91667 3.33333 4.58333 3.33333C5.25 3.33333 5.83333 3.91667 5.83333 4.58333C5.83333 5.25 5.25 5.83333 4.58333 5.83333Z" fill="#82868C"/>
</svg>
