<svg width="18" height="16" viewBox="0 0 18 16" fill="none" xmlns="http://www.w3.org/2000/svg">
<path d="M4.38275 3.54229C4.81599 3.25884 5.10126 2.77682 5.10126 2.22941C5.10126 1.35692 4.37701 0.649902 3.48291 0.649902C2.58881 0.649902 1.86428 1.35692 1.86428 2.22941C1.86428 2.77682 2.1501 3.25911 2.58306 3.54229C1.46004 3.86604 0.649902 4.75722 0.649902 5.6241C0.649902 6.70878 1.91871 6.57026 3.48318 6.57026C5.0482 6.57026 6.31646 6.70905 6.31646 5.6241C6.31673 4.75695 5.50687 3.86577 4.38275 3.54229ZM14.7162 3.54229C15.1494 3.25884 15.4347 2.77682 15.4347 2.22941C15.4347 1.35692 14.7104 0.649902 13.8163 0.649902C12.9222 0.649902 12.1977 1.35719 12.1977 2.22941C12.1977 2.77682 12.4835 3.25911 12.9165 3.54229C11.7935 3.86604 10.9833 4.75722 10.9833 5.6241C10.9833 6.70878 12.2522 6.57026 13.8166 6.57026C15.3816 6.57026 16.6499 6.70905 16.6499 5.6241C16.6499 4.75695 15.84 3.86577 14.7162 3.54229ZM9.64315 11.1471C10.1212 10.834 10.4363 10.302 10.4363 9.69752C10.4363 8.73455 9.63659 7.9536 8.64949 7.9536C7.66267 7.9536 6.86266 8.73455 6.86266 9.69752C6.86266 10.302 7.17774 10.8342 7.65611 11.1471C6.41574 11.5044 5.52164 12.4882 5.52164 13.4453C5.52164 14.6429 6.92201 14.4897 8.64977 14.4897C10.3775 14.4897 11.7776 14.6429 11.7776 13.4453C11.7779 12.488 10.8835 11.5042 9.64315 11.1471Z" stroke="#82868C" stroke-width="1.3" stroke-miterlimit="10"/>
</svg>
