<?xml version="1.0" encoding="UTF-8" ?>
<!DOCTYPE svg PUBLIC "-//W3C//DTD SVG 1.1//EN" "http://www.w3.org/Graphics/SVG/1.1/DTD/svg11.dtd">
<svg width="100pt" height="100pt" viewBox="0 0 100 100" version="1.1" xmlns="http://www.w3.org/2000/svg">
<g id="#fcc400ff">
<path fill="#fcc400" opacity="1.00" d=" M 45.06 5.28 C 49.64 2.63 54.78 4.87 58.98 7.17 C 68.71 12.46 79.07 16.62 89.88 19.10 C 89.66 37.31 85.04 55.73 74.85 70.98 C 68.42 80.68 60.01 89.20 49.93 95.10 C 36.88 87.92 26.78 76.11 20.04 62.96 C 13.25 49.43 10.34 34.23 10.11 19.16 C 22.45 16.43 33.86 10.95 45.06 5.28 M 46.65 24.62 C 46.79 36.41 46.56 48.20 46.77 59.98 C 49.05 60.02 51.34 60.00 53.62 59.85 C 53.57 48.06 53.73 36.26 53.54 24.47 C 51.24 24.32 48.93 24.36 46.65 24.62 M 46.77 67.02 C 46.70 69.47 46.67 71.93 46.66 74.38 C 48.96 74.55 51.26 74.59 53.57 74.47 C 53.62 72.03 53.64 69.58 53.62 67.14 C 51.34 67.00 49.06 66.98 46.77 67.02 Z" />
</g>
<g id="#1c497cff">
<path fill="#1c497c" opacity="1.00" d=" M 48.51 0.00 L 51.54 0.00 C 57.67 1.21 62.83 4.91 68.42 7.46 C 76.53 11.46 85.21 14.12 94.02 16.08 C 94.26 36.77 88.97 57.89 76.83 74.86 C 69.94 85.05 60.52 93.15 50.40 100.00 L 48.93 100.00 C 49.05 99.84 49.29 99.51 49.41 99.34 C 36.33 92.36 25.75 81.19 18.43 68.38 C 9.42 52.57 5.81 34.15 5.99 16.08 C 14.80 14.12 23.48 11.44 31.61 7.46 C 37.21 4.92 42.37 1.19 48.51 0.00 M 45.06 5.28 C 33.86 10.95 22.45 16.43 10.11 19.16 C 10.34 34.23 13.25 49.43 20.04 62.96 C 26.78 76.11 36.88 87.92 49.93 95.10 C 60.01 89.20 68.42 80.68 74.85 70.98 C 85.04 55.73 89.66 37.31 89.88 19.10 C 79.07 16.62 68.71 12.46 58.98 7.17 C 54.78 4.87 49.64 2.63 45.06 5.28 Z" />
<path fill="#1c497c" opacity="1.00" d=" M 46.65 24.62 C 48.93 24.36 51.24 24.32 53.54 24.47 C 53.73 36.26 53.57 48.06 53.62 59.85 C 51.34 60.00 49.05 60.02 46.77 59.98 C 46.56 48.20 46.79 36.41 46.65 24.62 Z" />
<path fill="#1c497c" opacity="1.00" d=" M 46.77 67.02 C 49.06 66.98 51.34 67.00 53.62 67.14 C 53.64 69.58 53.62 72.03 53.57 74.47 C 51.26 74.59 48.96 74.55 46.66 74.38 C 46.67 71.93 46.70 69.47 46.77 67.02 Z" />
</g>
</svg>
